#!OML:ASF X:\für Bonn\!DataBase\2005_08_11_Bastian_Final\c3d\Bastian.ASF
:FULLY-SPECIFIED
:DEGREES
76
root -1.42727 7.77463 2.01817 162.791 -2.38029 -173.664
lowerback 36.0224 0.441141 3.20529
upperback 8.06447 -0.87184 2.24949
thorax -8.9679 -1.66812 1.22989
lowerneck -9.17057 -6.83552 -6.03934
upperneck -10.8811 -6.6835 13.8393
head -0.963298 -2.70941 5.01684
rclavicle -1.08835e-014 -2.64384e-014
rhumerus 71.807 7.04306 19.5728
rradius 40.7051
rwrist -72.7347
rhand -50.9273 -5.50614
rfingers 7.12502
rthumb -23.4789 -34.0934
lclavicle -1.08835e-014 -2.64384e-014
lhumerus 68.7112 -15.8415 -28.2262
lradius 32.6123
lwrist 30.6269
lhand -48.1402 24.9746
lfingers 7.12502
lthumb -20.8031 53.8794
rfemur -54.5504 -18.7358 29.0238
rtibia 148.077
rfoot -50.3825 -9.59117
rtoes -4.63329
lfemur -50.0866 39.1371 1.50121
ltibia 151.996
lfoot -52.0481 -20.2712
ltoes -11.8469
77
root -1.42799 7.86188 2.03886 162.853 -2.44939 -173.733
lowerback 36.1946 0.44997 3.1766
upperback 8.05964 -0.876767 2.24203
thorax -9.03562 -1.67518 1.24433
lowerneck -9.05223 -6.80925 -6.0225
upperneck -10.9735 -6.64286 13.8328
head -1.01395 -2.69532 5.0186
rclavicle -7.35503e-015 -3.37934e-015
rhumerus 71.9495 7.23359 19.5314
rradius 40.6539
rwrist -72.3354
rhand -50.9506 -5.70582
rfingers 7.12502
rthumb -23.5012 -34.2903
lclavicle -7.35503e-015 -3.37934e-015
lhumerus 68.9187 -16.3285 -28.8051
lradius 32.8729
lwrist 31.3865
lhand -48.1766 24.8792
lfingers 7.12502
lthumb -20.8381 53.7801
rfemur -54.5069 -17.5003 29.2907
rtibia 147.349
rfoot -50.041 -10.1966
rtoes -5.53552
lfemur -50.307 37.8008 0.573834
ltibia 151.237
lfoot -51.8568 -20.1537
ltoes -11.8358
78
root -1.42898 7.97033 2.0611 162.937 -2.53728 -173.801
lowerback 36.3641 0.451399 3.12653
upperback 8.04246 -0.893335 2.24897
thorax -9.11619 -1.68596 1.29005
lowerneck -8.86039 -5.03954 -6.28237
upperneck -11.4954 -6.90091 13.599
head -1.21015 -4.06204 5.0316
rclavicle 1.54058e-014 -4.19436e-014
rhumerus 72.1048 7.3926 19.6414
rradius 40.6685
rwrist -72.0271
rhand -50.8567 -6.17221
rfingers 7.12502
rthumb -23.4111 -34.7682
lclavicle 1.54058e-014 -4.19436e-014
lhumerus 69.1164 -16.8107 -29.2854
lradius 33.0732
lwrist 32.0973
lhand -48.2063 24.7049
lfingers 7.12502
lthumb -20.8666 53.6027
rfemur -54.4105 -16.3778 29.4708
rtibia 146.498
rfoot -49.6508 -10.6294
rtoes -6.19233
lfemur -50.5932 36.1169 -0.536637
ltibia 150.311
lfoot -51.5159 -19.9205
ltoes -11.9112
79
root -1.42882 8.10002 2.08438 163.036 -2.61065 -173.885
lowerback 36.5392 0.463262 3.07215
upperback 8.01502 -0.896255 2.22979
thorax -9.21034 -1.68819 1.30518
lowerneck -8.67241 -4.99448 -6.17912
upperneck -11.649 -6.84767 13.5463
head -1.29663 -4.05012 5.0108
rclavicle 2.48481e-015 1.39149e-015
rhumerus 72.1991 7.5447 20.0183
rradius 40.7773
rwrist -71.9547
rhand -50.7687 -6.67826
rfingers 7.12502
rthumb -23.3268 -35.2849
lclavicle 2.48481e-015 1.39149e-015
lhumerus 69.3621 -17.2387 -29.7446
lradius 33.2059
lwrist 32.6517
lhand -48.1956 24.5498
lfingers 7.12502
lthumb -20.8563 53.4487
rfemur -54.2733 -15.2847 29.6296
rtibia 145.506
rfoot -49.1825 -11.0798
rtoes -6.89018
lfemur -50.8479 34.1766 -1.71424
ltibia 149.204
lfoot -51.0649 -19.6497
ltoes -12.0665
80
root -1.42976 8.24868 2.10856 163.151 -2.69011 -173.934
lowerback 36.7064 0.457188 3.06314
upperback 7.97521 -0.900495 2.21119
thorax -9.31467 -1.68973 1.29758
lowerneck -8.44922 -4.94165 -6.01188
upperneck -11.8527 -6.79101 13.444
head -1.40864 -4.04164 4.96706
rclavicle 9.14409e-015 -3.97569e-015
rhumerus 72.2763 7.6751 20.5666
rradius 40.9438
rwrist -72.0181
rhand -50.7255 -7.26911
rfingers 7.12502
rthumb -23.2853 -35.881
lclavicle 9.14409e-015 -3.97569e-015
lhumerus 69.6055 -17.625 -30.0942
lradius 33.252
lwrist 32.8718
lhand -48.1294 24.494
lfingers 7.12502
lthumb -20.7927 53.3999
rfemur -54.0445 -14.1795 29.771
rtibia 144.329
rfoot -48.6708 -11.4643
rtoes -7.42494
lfemur -51.0799 31.9723 -2.90325
ltibia 147.948
lfoot -50.4483 -19.3914
ltoes -12.0897
81
root -1.42985 8.4126 2.13364 163.307 -2.78455 -174.015
lowerback 36.849 0.45438 2.99032
upperback 7.91869 -0.915671 2.20521
thorax -9.4297 -1.69227 1.34074
lowerneck -8.26691 -4.88384 -5.86571
upperneck -12.0249 -6.72623 13.3242
head -1.50578 -4.02501 4.91958
rclavicle 1.03368e-014 -8.54774e-015
rhumerus 72.365 7.78048 20.9872
rradius 41.0895
rwrist -71.9927
rhand -50.6408 -7.7703
rfingers 7.12502
rthumb -23.204 -36.3925
lclavicle 1.03368e-014 -8.54774e-015
lhumerus 69.8271 -18.0112 -30.3972
lradius 33.1933
lwrist 32.767
lhand -48.0245 24.7022
lfingers 7.12502
lthumb -20.6919 53.6191
rfemur -53.763 -13.1624 29.8181
rtibia 143.008
rfoot -48.1645 -11.7118
rtoes -7.85603
lfemur -51.2952 29.6496 -4.16827
ltibia 146.552
lfoot -49.7646 -18.9446
ltoes -12.4467
